<?xml version="1.0" encoding="UTF-8"?>
<!-- Generated by Pixelmator Pro 3.6.17 -->
<svg width="512" height="512" viewBox="0 0 512 512" xmlns="http://www.w3.org/2000/svg">
    <g id="Group">
        <linearGradient id="linearGradient1" x1="24" y1="24" x2="488" y2="488" gradientUnits="userSpaceOnUse">
            <stop offset="1e-05" stop-color="#1e3a6e" stop-opacity="1"/>
            <stop offset="0.4" stop-color="#152952" stop-opacity="1"/>
            <stop offset="1" stop-color="#0d1b38" stop-opacity="1"/>
        </linearGradient>
        <path id="Path" fill="url(#linearGradient1)" stroke="none" d="M 163.5625 24 L 348.4375 24 C 425.515747 24 488 86.484253 488 163.5625 L 488 348.4375 C 488 425.515747 425.515747 488 348.4375 488 L 163.5625 488 C 86.484261 488 24 425.515747 24 348.4375 L 24 163.5625 C 24 86.484253 86.484261 24 163.5625 24 Z"/>
        <radialGradient id="radialGradient1" cx="200.32" cy="153.92" r="232" fx="200.32" fy="153.92" gradientUnits="userSpaceOnUse">
            <stop offset="1e-05" stop-color="#ffffff" stop-opacity="0.137255"/>
            <stop offset="1" stop-color="#ffffff" stop-opacity="0"/>
        </radialGradient>
        <path id="path1" fill="url(#radialGradient1)" stroke="none" d="M 163.5625 24 L 348.4375 24 C 425.515747 24 488 86.484253 488 163.5625 L 488 348.4375 C 488 425.515747 425.515747 488 348.4375 488 L 163.5625 488 C 86.484261 488 24 425.515747 24 348.4375 L 24 163.5625 C 24 86.484253 86.484261 24 163.5625 24 Z"/>
        <g id="g1">
            <linearGradient id="linearGradient2" x1="1532" y1="665.625" x2="1532" y2="2405.625" gradientUnits="userSpaceOnUse">
                <stop offset="1e-05" stop-color="#e0edff" stop-opacity="1"/>
                <stop offset="1" stop-color="#93b4e4" stop-opacity="1"/>
            </linearGradient>
            <path id="path2" fill="url(#linearGradient2)" stroke="none" d="M 246.03125 149.0625 L 262.34375 149.0625 C 266.848297 149.0625 270.5 152.714203 270.5 157.21875 L 270.5 282.28125 C 270.5 286.785828 266.848297 290.4375 262.34375 290.4375 L 246.03125 290.4375 C 241.526688 290.4375 237.875 286.785828 237.875 282.28125 L 237.875 157.21875 C 237.875 152.714203 241.526688 149.0625 246.03125 149.0625 Z"/>
            <linearGradient id="linearGradient3" x1="1532" y1="665.625" x2="1532" y2="2405.625" gradientUnits="userSpaceOnUse">
                <stop offset="1e-05" stop-color="#e0edff" stop-opacity="1"/>
                <stop offset="1" stop-color="#93b4e4" stop-opacity="1"/>
            </linearGradient>
            <path id="path3" fill="url(#linearGradient3)" stroke="none" d="M 202.53125 187.125 L 305.84375 187.125 C 310.348297 187.125 314 190.776703 314 195.28125 L 314 211.59375 C 314 216.098297 310.348297 219.75 305.84375 219.75 L 202.53125 219.75 C 198.026672 219.75 194.375 216.098297 194.375 211.59375 L 194.375 195.28125 C 194.375 190.776703 198.026672 187.125 202.53125 187.125 Z"/>
            <linearGradient id="linearGradient4" x1="1532" y1="665.625" x2="1532" y2="2405.625" gradientUnits="userSpaceOnUse">
                <stop offset="1e-05" stop-color="#e0edff" stop-opacity="1"/>
                <stop offset="1" stop-color="#93b4e4" stop-opacity="1"/>
            </linearGradient>
            <path id="path4" fill="url(#linearGradient4)" stroke="none" opacity="0.7" d="M 183.5 301.3125 C 183.5 301.3125 216.125 285 254.1875 285 C 292.25 285 324.875 301.3125 324.875 301.3125 L 324.875 317.625 C 324.875 317.625 292.25 306.75 254.1875 306.75 C 216.125 306.75 183.5 317.625 183.5 317.625 Z"/>
        </g>
    </g>
</svg>
